<svg version="1.1" id="1772860027" xmlns="http://www.w3.org/2000/svg" xmlns:xlink="http://www.w3.org/1999/xlink" x="0px" y="0px" viewBox="0 0 480.141 480.141" style="enable-background:new 0 0 480.141 480.141;" xml:space="preserve" class="svg u_1772860027" data-icon-custom="true" data-icon-name="loupe.svg" alt="Contador em Fortaleza"> <g id="1712879303"> <g id="1070544701"> <path d="M144.046,48.095c-22.091,0-40-17.909-40-40c0-4.418-3.582-8-8-8s-8,3.582-8,8c0,22.091-17.909,40-40,40c-4.418,0-8,3.582-8,8s3.582,8,8,8c22.091,0,40,17.909,40,40c0,4.418,3.582,8,8,8s8-3.582,8-8c0-22.091,17.909-40,40-40c4.418,0,8-3.582,8-8S148.465,48.095,144.046,48.095z M96.046,75.375c-4.74-7.917-11.363-14.54-19.28-19.28c7.917-4.74,14.54-11.363,19.28-19.28c4.74,7.917,11.363,14.54,19.28,19.28C107.409,60.835,100.786,67.458,96.046,75.375z" id="1863798840"></path> </g> </g> <g id="1966325125"> <g id="1707587669"> <path d="M312.046,47.135c-66.804,0-120.96,54.156-120.96,120.96c0.044,66.786,54.174,120.916,120.96,120.96c66.804,0,120.96-54.156,120.96-120.96S378.851,47.135,312.046,47.135z M312.046,273.055c-57.968,0-104.96-46.992-104.96-104.96c0.088-57.931,47.029-104.872,104.96-104.96c57.968,0,104.96,46.992,104.96,104.96C417.006,226.062,370.014,273.055,312.046,273.055z" id="1032373987"></path> </g> </g> <g id="1368708559"> <g id="1397407463"> <path d="M312.046,88.095c-44.183,0-80,35.817-80,80c0,4.418,3.582,8,8,8s8-3.582,8-8c0-35.346,28.654-64,64-64c4.418,0,8-3.582,8-8S316.465,88.095,312.046,88.095z" id="1862484556"></path> </g> </g> <g id="1140470356"> <g id="1992710950"> <path d="M407.244,29.537c-76.48-52.533-181.065-33.12-233.598,43.36c-39.362,57.304-39.362,132.933,0,190.238L2.366,434.415c-3.137,3.111-3.158,8.177-0.046,11.314c0.015,0.016,0.031,0.031,0.046,0.046l32,32c3.111,3.137,8.177,3.158,11.314,0.046c0.016-0.015,0.031-0.031,0.046-0.046l171.28-171.28c76.48,52.533,181.065,33.12,233.598-43.36C503.137,186.655,483.724,82.07,407.244,29.537z M40.046,460.815l-20.72-20.72l28.72-28.72l20.72,20.72L40.046,460.815zM80.046,420.815l-20.72-20.72l124.16-124.08c6.268,7.466,13.174,14.372,20.64,20.64L80.046,420.815z M312.046,320.095c-83.947,0-152-68.053-152-152s68.053-152,152-152s152,68.053,152,152S395.994,320.095,312.046,320.095z" id="1222669446"></path> </g></g> <g id="1222258016"> <g id="1280158658"> <path d="M424.046,384.095c-13.255,0-24-10.745-24-24c0-4.418-3.582-8-8-8s-8,3.582-8,8c0,13.255-10.745,24-24,24c-4.418,0-8,3.582-8,8s3.582,8,8,8c13.255,0,24,10.745,24,24c0,4.418,3.582,8,8,8s8-3.582,8-8c0-13.255,10.745-24,24-24c4.418,0,8-3.582,8-8S428.465,384.095,424.046,384.095z M392.046,400.095c-2.274-3.032-4.968-5.726-8-8c3.032-2.274,5.726-4.968,8-8c2.274,3.032,4.968,5.726,8,8C397.014,394.369,394.321,397.062,392.046,400.095z" id="1347619465"></path> </g> </g> <g id="1261490035"></g> <g id="1111181216"></g> <g id="1258235987"></g> <g id="1091420715"></g> <g id="1442080290"></g> <g id="1697444249"></g> <g id="1316451410"></g> <g id="1844387236"></g> <g id="1820204587"></g> <g id="1009199332"></g> <g id="1227118076"></g> <g id="1379524562"></g> <g id="1246807499"></g> <g id="1772402649"></g> <g id="1867504962"></g> </svg>