<svg version="1.1" id="1695223979"
    xmlns="http://www.w3.org/2000/svg"
    xmlns:xlink="http://www.w3.org/1999/xlink" x="0px" y="0px" viewBox="0 0 512 512" style="enable-background:new 0 0 512 512;" xml:space="preserve" class="svg u_1695223979" data-icon-custom="true" data-icon-name="access.svg" alt="Contabilidade para Restaurantes, Bares e Lanchonetes em Fortaleza - CE">
    <g id="1199244174">
        <g id="1634399690">
            <path d="M508.5,402.1L364,257.7c-1.6-1.6-3.9-2.5-6.2-2.3l-72.9,4.9l-34.4-45.8c1-4.6,1.5-9.4,1.7-14.2c0.5-21-7.4-40.7-22.3-55.5
			c-18-18-44-25.8-68.9-20.8l-28-28c-3.1-3.1-8.2-3.1-11.3,0c-3.1,3.1-3.1,8.2,0,11.3l31.1,31.1c2,2,4.9,2.8,7.7,2.1
			c20.7-5.5,42.9,0.4,58.1,15.5c11.7,11.7,18,27.3,17.6,43.9c-0.3,12.2-4.1,23.7-11.1,33.4L212.2,223c4.1-8.4,3.1-18.6-2.5-26.1
			c-5.4-7.2-14.5-10.9-23.4-9.7c-8.8,1.2-16.5,7.3-19.8,15.6c-3.2,8.1-1.8,17.6,3.5,24.5c7.2,9.3,20.3,12.3,30.9,7l13.4,10.6
			c-23.1,19-57.3,18-79.3-2.7c-21.4-20.1-25.2-52.5-9-76.9c2-3,1.7-6.9-0.6-9.6l-22.5-26.2l2.2-2.2c3.1-3.1,3.1-8.2,0-11.3L87,98
			c-3-3-8.1-3.1-11.2-0.1l-6.3-7.3l5.4-5.4c3.1-3.1,3.1-8.2,0-11.3L56.9,55.9c-1.9-1.9-4.6-2.7-7.2-2.2l-9.2,1.8L19.3,20.6l2.3-2.3
			c3.1-3.1,8.2-3.1,11.3,0l63.4,63.4c3.1,3.1,8.2,3.1,11.3,0c3.1-3.1,3.1-8.2,0-11.3L44.2,7c-9.3-9.3-24.5-9.3-33.9,0l-6.8,6.8
			c-2.6,2.6-3.1,6.6-1.2,9.8l27.5,45.1c1.7,2.9,5.1,4.3,8.4,3.7l10.5-2.1l9.4,9.4l-5,5c-2.9,2.9-3.1,7.7-0.4,10.8l16.7,19.4
			c3.3,3.8,8.7,3.4,12.1,0.1l6.8,6.8l-1.8,1.8c-2.9,2.9-3.1,7.7-0.4,10.8l23.5,27.5c-16.7,30.2-11,68,14.6,92.1
			c14.5,13.7,33.3,20.6,52.1,20.6c18.2,0,36.5-6.5,50.9-19.4l32.3,25.4l-5.2,78.7c-0.2,2.3,0.7,4.5,2.3,6.2l91,91
			c3.1,3.1,8.2,3.1,11.3,0s3.1-8.2,0-11.3l-88.4-88.4l4.3-64.2l20.1,15.8c-2.9,5-4.5,10.8-4.5,16.8c0,11,5.5,21.4,14.5,27.6
			c8.9,6.1,20.5,7.6,30.6,3.8c9.4-3.5,17-11.3,20.2-20.8c3-9,2-19.1-2.7-27.3c-5.9-10.4-17.2-16.9-29.1-16.9
			c-6.4,0-12.6,1.8-17.9,5.2l-25.5-20.1l75-5l136.2,136.2l-85,85l-22.3-22.3c-3.1-3.1-8.2-3.1-11.3,0s-3.1,8.2,0,11.3l28,28
			c3.1,3.1,8.2,3.1,11.3,0l96.3-96.3C511.6,410.3,511.6,405.2,508.5,402.1z M198.7,213.1c-5.1-1.5-10.4,2.5-10.2,7.8
			c-7.3-1-10.3-10.2-5.1-15.3c2.7-2.7,7-3.4,10.4-1.7C197.2,205.6,199.1,209.3,198.7,213.1z M263.2,263.1l-25.4-19.9
			c2.4-3.4,4.6-6.9,6.4-10.6l21.8,29.1C265,261.9,264,262.4,263.2,263.1z M307.5,318.2l3.2,2.5c3.4,2.7,8.5,2.1,11.2-1.3
			c2.7-3.5,2.1-8.5-1.3-11.2l-0.4-0.3c1.2-0.3,2.4-0.4,3.6-0.4c11.5,0,20,11.4,16.9,22.4c-3,10.5-15.2,15.6-24.9,10.7
			c-5.8-2.9-9.5-9.1-9.5-15.6C306.1,322.6,306.6,320.3,307.5,318.2z" id="1838076788"></path>
        </g>
    </g>
    <g id="1715379272">
        <g id="1427792157">
            <path d="M499.6,208.6c-5.4-0.7-19.1-3.7-28.8-16.2c-6.9-8.8-8.6-18.4-9-23.3c-0.3-4.2-3.8-7.4-8-7.4s-7.6,3.2-8,7.4
			c-0.4,4.9-2,14.5-9,23.3c-9.7,12.4-23.4,15.4-28.8,16.2c-4,0.5-6.9,3.9-6.9,7.9s3,7.4,6.9,7.9c5.4,0.7,19.1,3.7,28.8,16.2
			c6.9,8.8,8.6,18.4,9,23.3c0.3,4.2,3.8,7.4,8,7.4s7.6-3.2,8-7.4c0.4-4.9,2-14.5,9-23.3c9.7-12.4,23.4-15.4,28.8-16.2
			c4-0.5,6.9-3.9,6.9-7.9S503.6,209.1,499.6,208.6z M453.9,237.1c-1.3-2.1-2.7-4.3-4.4-6.4c0,0,0,0,0,0c-5-6.4-10.7-11-16.3-14.2
			c5.6-3.3,11.3-7.8,16.3-14.2c1.7-2.1,3.1-4.3,4.4-6.4c5,8.5,12.2,15.6,20.7,20.6C466.1,221.5,458.9,228.6,453.9,237.1z" id="1630417900"></path>
        </g>
    </g>
    <g id="1689096855">
        <g id="1269809022">
            <path d="M295.4,46.9c-5.4-0.7-19.1-3.7-28.8-16.2c-6.9-8.8-8.6-18.4-9-23.3c-0.3-4.2-3.8-7.4-8-7.4s-7.6,3.2-8,7.4
			c-0.4,4.9-2,14.5-9,23.3c-9.7,12.4-23.4,15.4-28.8,16.2c-4,0.5-6.9,3.9-6.9,7.9s3,7.4,6.9,7.9c5.4,0.7,19.1,3.7,28.8,16.2
			c6.9,8.8,8.6,18.4,9,23.3c0.3,4.2,3.8,7.4,8,7.4s7.6-3.2,8-7.4c0.4-4.9,2-14.5,9-23.3c9.7-12.4,23.4-15.4,28.8-16.2
			c4-0.5,6.9-3.9,6.9-7.9S299.3,47.4,295.4,46.9z M249.6,75.4c-1.3-2.1-2.7-4.3-4.4-6.4l0,0c-5-6.4-10.7-11-16.3-14.2
			c5.6-3.3,11.3-7.8,16.3-14.2c1.7-2.1,3.1-4.3,4.4-6.4c5,8.5,12.2,15.6,20.7,20.6C261.8,59.8,254.6,66.9,249.6,75.4z" id="1825407542"></path>
        </g>
    </g>
    <g id="1066394473">
        <g id="1824336680">
            <path d="M184.7,378.8c-5.4-0.7-19.1-3.7-28.8-16.2c-6.9-8.8-8.6-18.4-9-23.3c-0.3-4.2-3.8-7.4-8-7.4c-4.2,0-7.6,3.2-8,7.4
			c-0.4,4.9-2,14.5-9,23.3c-9.7,12.4-23.4,15.4-28.8,16.2c-4,0.5-6.9,3.9-6.9,7.9s3,7.4,6.9,7.9c5.4,0.7,19.1,3.7,28.8,16.2
			c6.9,8.8,8.6,18.4,9,23.3c0.3,4.2,3.8,7.4,8,7.4c4.2,0,7.6-3.2,8-7.4c0.4-4.9,2-14.5,9-23.3c9.7-12.4,23.4-15.4,28.8-16.2
			c4-0.5,6.9-3.9,6.9-7.9S188.7,379.3,184.7,378.8z M143.3,401c-1.7,2.1-3.1,4.3-4.4,6.4c-1.3-2.1-2.7-4.3-4.4-6.4l0,0
			c-5-6.4-10.7-11-16.3-14.2c8.5-5,15.7-12.1,20.7-20.6c5,8.5,12.2,15.6,20.7,20.6C154.1,390,148.3,394.6,143.3,401z" id="1065686964"></path>
        </g>
    </g>
</svg>