<svg height="512pt" viewBox="-3 0 512 512" width="512pt" xmlns="http://www.w3.org/2000/svg"><path fill="rgba(0,50,100,1)" d="m212.753906 246.683594c-4.183594 0-7.574218 3.386718-7.574218 7.570312 0 7.03125-5.71875 12.75-12.746094 12.75-7.03125 0-12.75-5.71875-12.75-12.75 0-4.183594-3.386719-7.570312-7.570313-7.570312-4.179687 0-7.570312 3.386718-7.570312 7.570312 0 15.378906 12.511719 27.890625 27.890625 27.890625 26.828125 0 35.828125-35.460937 20.320312-35.460937zm0 0"/><path fill="rgba(0,50,100,1)" d="m256.714844 212.105469c0 6.667969-5.40625 12.074219-12.070313 12.074219-6.667969 0-12.070312-5.40625-12.070312-12.074219 0-6.664063 5.402343-12.070313 12.070312-12.070313 6.664063 0 12.070313 5.40625 12.070313 12.070313zm0 0"/><path fill="rgba(0,50,100,1)" d="m152.292969 212.105469c0 6.667969-5.40625 12.074219-12.070313 12.074219-6.667968 0-12.070312-5.40625-12.070312-12.074219 0-6.664063 5.402344-12.070313 12.070312-12.070313 6.664063 0 12.070313 5.40625 12.070313 12.070313zm0 0"/><path fill="rgba(0,50,100,1)" d="m229.921875 192.0625c5.859375-1.222656 24.707031-3.375 34.128906 2.550781 3.546875 2.226563 8.21875 1.160157 10.441407-2.378906 2.222656-3.539063 1.160156-8.210937-2.378907-10.4375-16.25-10.214844-42.355469-5.164063-45.28125-4.558594-4.09375.855469-6.71875 4.863281-5.867187 8.957031.855468 4.09375 4.867187 6.726563 8.957031 5.867188zm0 0"/><path fill="rgba(0,50,100,1)" d="m158.03125 177.238281c-2.921875-.609375-29.03125-5.660156-45.277344 4.558594-6.425781 4.039063-3.523437 13.980469 4.039063 13.980469 1.375 0 2.769531-.375 4.019531-1.160156 9.414062-5.917969 27.820312-3.851563 34.132812-2.554688 4.097657.863281 8.101563-1.773438 8.953126-5.867188.851562-4.09375-1.773438-8.101562-5.867188-8.957031zm0 0"/><path fill="rgba(0,50,100,1)" d="m489.15625 326.234375h-52.015625v-10.609375c0-15.078125-12.265625-27.355469-27.347656-27.355469h-46.089844c-15.078125 0-27.34375 12.277344-27.34375 27.355469v5.953125c-13.660156-32.195313-12.03125-56.023437-12.03125-81.546875 13.644531-16.804688 13.6875-40.921875 0-57.800781v-20.53125h1.382813c7.660156 0 13.886718-6.199219 13.949218-13.839844l2.050782-86.898437v-.183594c0-23.125-18.816407-41.941406-41.941407-41.941406-9.953125 0-10.117187-.019532-11.621093.070312v-3.410156c0-8.550782-6.953126-15.496094-15.515626-15.496094h-158.621093c-36.761719 0-66.671875 29.820312-66.730469 66.5l-2.050781 79.976562v.191407c0 7.9375 6.304687 15.03125 15.304687 15.03125v20.542969c-13.671875 16.835937-13.664062 40.945312 0 57.769531 0 22.988281.910156 37.765625-4.664062 59.695312-1.03125 4.046875 1.414062 8.175781 5.46875 9.207031 4.257812 1.03125 8.207031-1.570312 9.207031-5.480468 5.65625-22.285156 5.128906-38.335938 5.128906-51.207032 2.996094 1.511719 6.1875 2.703126 9.507813 3.53125 6.863281 27.074219 28.335937 48.109376 42.082031 59.234376 7.664063 6.207031 15.960937 11.828124 24.1875 16.511718-32.105469 3.085938-63.226563 16.820313-87.859375 41.457032-11.105469 11.105468-20.167969 23.703124-27.003906 37.351562-8.085938-4.300781-14.453125-8.59375-19.1875-12.195312-2.875-2.183594-3.0625-6.476563-.273438-8.875 18.191406-15.511719 32.574219-34.347657 42.730469-55.992188 1.773437-3.785156.148437-8.296875-3.636719-10.074219-3.773437-1.765625-8.285156-.140625-10.0625 3.636719-9.246094 19.683594-22.320312 36.8125-38.851562 50.914062-10.003906 8.546876-9.78125 24.304688.9375 32.441407 5.441406 4.140625 12.839844 9.117187 22.277344 14.0625-5.933594 15.910156-9.035157 32.917969-9.035157 50.390625 0 20.613281 16.769531 37.378906 37.378907 37.378906h409.980468c20.945313 0 37.992188-17.039062 37.992188-37.984375 0-6.652344 0-123.863281 0-130.09375 0-9.753906-7.933594-17.6875-17.683594-17.6875zm-137.65625-10.609375c0-6.730469 5.472656-12.210938 12.203125-12.210938h46.089844c6.734375 0 12.207031 5.480469 12.207031 12.210938v10.609375h-70.5zm-63.472656-281.515625c1.625-.171875 1.796875-.132813 11.742187-.132813 14.746094 0 26.757813 11.984376 26.796875 26.71875l-2.015625 85.863282c-39.507812 0-36.617187.027344-37.804687-.070313-13.878906-.949219-24.871094-12.507812-24.941406-26.609375l.996093-28.738281c13.734375-16.277344 24.070313-36.027344 25.226563-57.03125zm13.851562 204.851563c.007813-.152344.007813-.3125.007813-.464844v-55.195313c23.292969 11.207031 23.417969 44.433594-.007813 55.660157zm.007813-71.851563v-5.410156h7.300781v8.339843c-2.324219-1.183593-4.765625-2.160156-7.300781-2.929687zm-218.902344 16.191406c0 .238281-.007813 55.425781.007813 55.660157-23.3125-11.171876-23.4375-44.433594-.007813-55.660157zm-7.308594-13.273437v-8.328125h7.308594v5.402343c-2.535156.765626-4.976563 1.746094-7.308594 2.925782zm22.449219 68.46875c0-15.105469 0-59.5625 0-76.855469 22.582031-.464844 44.746094-3.828125 66.007812-10.003906 4.007813-1.171875 6.316407-5.371094 5.148438-9.378907-1.164062-4.015624-5.363281-6.328124-9.378906-5.15625-38.109375 11.082032-64.78125 9.457032-99.519532 9.457032l2.039063-79.765625v-.191407c0-28.375 23.144531-51.460937 51.589844-51.460937.550781 0 158.996093-.195313 158.996093.355469 0 16.390625 3.140626 38.808594-25.15625 69.75-14.90625 16.320312-35.703124 31.03125-60.421874 41.878906-3.835938 1.675781-5.574219 6.148438-3.898438 9.976562 1.6875 3.824219 6.160156 5.570313 9.984375 3.882813 20.441406-8.960937 38.640625-20.460937 53.570313-33.761719-.015626.40625-.425782 12.128906-.425782 12.535156 0 22.5 17.816406 40.921876 40.085938 41.902344v18.695313c0 62.269531 1.042968 64.125-3.160156 76.472656-14.125 41.402344-71.550782 73.960937-91.148438 73.960937-22.453125-.011718-94.3125-42.59375-94.3125-92.292968zm135.859375 108.292968c5.320313 0 27.238281 5.054688 32.683594 8.386719v22.632813c-2.429688-1.757813-5.304688-4.390625-10.984375-4.390625-4.242188 0-3.808594.265625-35.226563 13.625l11.496094-12.394531c2.699219-2.910157 2.03125-3.6875 2.03125-27.859376zm-114.359375 7.539063c10.957031-4.109375 20.398438-6.238281 31.25-7.539063 0 24.332032-.617188 24.902344 1.910156 27.738282l11.234375 12.648437-28.414062-12.375c-5.992188-2.695312-11.980469-.925781-14.609375.976563l-22.914063 16.546875c.597657-17.726563 7.664063-30.183594 21.542969-37.996094zm65.238281 142.53125h-125.996093c-12.261719 0-22.234376-9.972656-22.234376-22.238281 0-38.488282 16.859376-75.628906 49.328126-101.296875-1.996094 6.429687-3.148438 13.890625-3.046876 22.550781.132813 11.5 13.890626 17.15625 22.457032 9.851562l23.773437-17.160156c.765625-.082031 55.078125 24.265625 55.71875 24.539063zm-18.84375-130.238281c0-15.5625 0-11.941406 0-27.738282 21.015625 9.253907 31.726563 9.289063 52.824219 0v27.648438l-27.023438 29.121094zm33.984375 130.238281v-84.398437c3.183594-1.675782 55.1875-23.957032 55.703125-23.894532l10.960938 7.914063v77.535156c0 8.570313 2.847656 16.484375 7.652343 22.84375zm76.679688-168.867187c-4.84375 2.292968-8.292969 6.921874-9.308594 10.984374-11.71875-4.246093-22.300781-6.097656-33.96875-7.472656h.011719c28.835937-16.433594 58.214843-43.996094 66.277343-75.757812 3.324219-.828125 6.503907-2.007813 9.492188-3.519532 0 13.371094-1.226562 40.441407 12.695312 74.007813-40.222656 0-40.058593-.71875-45.179687 1.738281-.011719.007813-.011719.007813-.019531.019532zm215.015625 146.023437c0 12.597656-10.257813 22.84375-22.855469 22.84375-7.035156 0-159.296875 0-164.191406 0-12.597656 0-22.84375-10.246094-22.84375-22.84375v-64.695313c5.984375 5.875 13.425781 10.265626 21.734375 12.578126v10.40625c0 6.925781 5.632812 12.570312 12.566406 12.570312h13.191406c6.289063 0 11.5-4.636719 12.425781-10.660156.21875 0 .144532-10.253906.144532-10.46875h89.757812v8.558594c0 6.925781 5.640625 12.570312 12.566406 12.570312h13.191407c6.9375 0 12.570312-5.644531 12.570312-12.570312v-10.40625c8.304688-2.3125 15.753907-6.710938 21.742188-12.585938zm-164.972657-50.269531v5.984375h-8.042968v-5.984375zm-8.042968-15.140625v-6.28125h8.046875v6.28125zm136.132812 15.140625v5.984375h-8.046875v-5.984375zm-8.046875-15.140625v-6.28125h8.042969v6.28125zm44.929688-35.269531c0 14.65625-8.984375 27.253906-21.742188 32.5625v-6.144532c0-6.925781-5.632812-12.570312-12.570312-12.570312h-13.191407c-6.925781 0-12.566406 5.644531-12.566406 12.570312v8.851563c-32.699218 0-55.921875 0-89.757812 0 0-9.160157.015625-9.042969-.03125-9.722657-.3125-4.640624-3.160156-8.597656-7.175782-10.496093-3.261718-1.539063-4.460937-1.203125-18.554687-1.203125-6.972656 0-12.566406 5.675781-12.566406 12.570312v6.144532c-12.617188-5.199219-21.734375-17.824219-21.734375-32.5625 0-31.753907-.175782-29.652344.273437-30.554688 1.09375-2.183594-10.859375-1.402344 207.074219-1.402344 1.390625 0 2.542969 1.140625 2.542969 2.542969zm0 0"/></svg>